<mxfile host="app.diagrams.net" modified="2021-03-29T16:52:12.700Z" agent="5.0 (Windows NT 10.0; Win64; x64) AppleWebKit/537.36 (KHTML, like Gecko) Chrome/86.0.4240.183 Safari/537.36" etag="2HF62zRHVh0s7JPFl7Yo" version="13.5.8" type="github">
  <diagram name="Page-1" id="2cc2dc42-3aac-f2a9-1cec-7a8b7cbee084">
    <mxGraphModel dx="1422" dy="802" grid="1" gridSize="10" guides="1" tooltips="1" connect="1" arrows="1" fold="1" page="1" pageScale="1" pageWidth="1100" pageHeight="850" background="#ffffff" math="0" shadow="0">
      <root>
        <mxCell id="0" />
        <mxCell id="1" parent="0" />
        <mxCell id="b0wTaCNG8n2VyJrpP7Xb-1" value="API Generator Tool" style="strokeWidth=1;shadow=0;dashed=0;align=center;html=1;shape=mxgraph.mockup.containers.window;align=left;verticalAlign=top;spacingLeft=8;strokeColor2=#008cff;strokeColor3=#c4c4c4;fontColor=#666666;mainText=;fontSize=17;labelBackgroundColor=none;" vertex="1" parent="1">
          <mxGeometry x="70" y="10" width="940" height="560" as="geometry" />
        </mxCell>
        <mxCell id="b0wTaCNG8n2VyJrpP7Xb-8" value="" style="strokeWidth=1;shadow=0;dashed=0;align=center;html=1;shape=mxgraph.mockup.containers.marginRect2;rectMarginTop=32;strokeColor=#666666;gradientColor=none;" vertex="1" parent="1">
          <mxGeometry x="190" y="50" width="710" height="490" as="geometry" />
        </mxCell>
        <mxCell id="b0wTaCNG8n2VyJrpP7Xb-10" value="Mapping" style="strokeWidth=1;shadow=0;dashed=0;align=center;html=1;shape=mxgraph.mockup.containers.rrect;rSize=0;fontSize=17;fontColor=#ffffff;strokeColor=#008cff;fillColor=#008cff;" vertex="1" parent="b0wTaCNG8n2VyJrpP7Xb-8">
          <mxGeometry width="100" height="25" relative="1" as="geometry">
            <mxPoint as="offset" />
          </mxGeometry>
        </mxCell>
        <mxCell id="b0wTaCNG8n2VyJrpP7Xb-11" value="MQ Test" style="strokeColor=inherit;fillColor=inherit;gradientColor=inherit;strokeWidth=1;shadow=0;dashed=0;align=center;html=1;shape=mxgraph.mockup.containers.rrect;rSize=0;fontSize=17;fontColor=#666666;gradientColor=none;" vertex="1" parent="b0wTaCNG8n2VyJrpP7Xb-8">
          <mxGeometry width="90" height="25" relative="1" as="geometry">
            <mxPoint x="100" as="offset" />
          </mxGeometry>
        </mxCell>
        <mxCell id="b0wTaCNG8n2VyJrpP7Xb-12" value="" style="strokeWidth=1;shadow=0;dashed=0;align=center;html=1;shape=mxgraph.mockup.containers.topButton;rSize=5;strokeColor=#008cff;fillColor=#008cff;gradientColor=none;resizeWidth=1;movable=0;deletable=1;" vertex="1" parent="b0wTaCNG8n2VyJrpP7Xb-8">
          <mxGeometry width="710" height="7" relative="1" as="geometry">
            <mxPoint y="25" as="offset" />
          </mxGeometry>
        </mxCell>
        <mxCell id="b0wTaCNG8n2VyJrpP7Xb-13" value="&lt;table cellpadding=&quot;4&quot; cellspacing=&quot;0&quot; border=&quot;1&quot; style=&quot;font-size: 1em ; width: 100% ; height: 100%&quot;&gt;&lt;tbody&gt;&lt;tr&gt;&lt;td&gt;&lt;b&gt;API Field Name&lt;/b&gt;&lt;/td&gt;&lt;th&gt;MQ Field Name&lt;/th&gt;&lt;th&gt;Require&lt;/th&gt;&lt;td&gt;&lt;b&gt;Data Type&lt;/b&gt;&lt;/td&gt;&lt;td&gt;&lt;b&gt;Format&lt;/b&gt;&lt;/td&gt;&lt;td&gt;&lt;b&gt;Sample Value&lt;/b&gt;&lt;/td&gt;&lt;/tr&gt;&lt;tr&gt;&lt;td&gt;&lt;br&gt;&lt;/td&gt;&lt;td&gt;DocRq&lt;br&gt;&lt;/td&gt;&lt;td&gt;&lt;/td&gt;&lt;td&gt;&lt;br&gt;&lt;/td&gt;&lt;td&gt;&lt;br&gt;&lt;/td&gt;&lt;td&gt;&lt;br&gt;&lt;/td&gt;&lt;/tr&gt;&lt;tr&gt;&lt;td&gt;&lt;br&gt;&lt;/td&gt;&lt;td&gt;ServiceName&lt;/td&gt;&lt;td&gt;&lt;/td&gt;&lt;td&gt;&lt;br&gt;&lt;/td&gt;&lt;td&gt;&lt;br&gt;&lt;/td&gt;&lt;td&gt;&lt;br&gt;&lt;/td&gt;&lt;/tr&gt;&lt;tr&gt;&lt;td&gt;&lt;br&gt;&lt;/td&gt;&lt;td&gt;SignonSessionRq&lt;br&gt;&lt;/td&gt;&lt;td&gt;&lt;br&gt;&lt;/td&gt;&lt;td&gt;&lt;br&gt;&lt;/td&gt;&lt;td&gt;&lt;br&gt;&lt;/td&gt;&lt;td&gt;&lt;br&gt;&lt;/td&gt;&lt;/tr&gt;&lt;tr&gt;&lt;td&gt;&lt;br&gt;&lt;/td&gt;&lt;td&gt;FXRateRq&lt;br&gt;&lt;/td&gt;&lt;td&gt;&lt;br&gt;&lt;/td&gt;&lt;td&gt;&lt;br&gt;&lt;/td&gt;&lt;td&gt;&lt;br&gt;&lt;/td&gt;&lt;td&gt;&lt;br&gt;&lt;/td&gt;&lt;/tr&gt;&lt;tr&gt;&lt;td&gt;&lt;br&gt;&lt;/td&gt;&lt;td&gt;CustId&lt;br&gt;&lt;/td&gt;&lt;td&gt;&lt;br&gt;&lt;/td&gt;&lt;td&gt;&lt;br&gt;&lt;/td&gt;&lt;td&gt;&lt;br&gt;&lt;/td&gt;&lt;td&gt;&lt;br&gt;&lt;/td&gt;&lt;/tr&gt;&lt;tr&gt;&lt;td&gt;&lt;br&gt;&lt;/td&gt;&lt;td&gt;CustLoginId&lt;br&gt;&lt;/td&gt;&lt;td&gt;&lt;br&gt;&lt;/td&gt;&lt;td&gt;&lt;br&gt;&lt;/td&gt;&lt;td&gt;&lt;br&gt;&lt;/td&gt;&lt;td&gt;&lt;br&gt;&lt;/td&gt;&lt;/tr&gt;&lt;tr&gt;&lt;td&gt;&lt;br&gt;&lt;/td&gt;&lt;td&gt;CustId&lt;br&gt;&lt;/td&gt;&lt;td&gt;&lt;br&gt;&lt;/td&gt;&lt;td&gt;&lt;br&gt;&lt;/td&gt;&lt;td&gt;&lt;br&gt;&lt;/td&gt;&lt;td&gt;&lt;br&gt;&lt;/td&gt;&lt;/tr&gt;&lt;tr&gt;&lt;td&gt;&lt;br&gt;&lt;/td&gt;&lt;td&gt;RqUID&lt;br&gt;&lt;/td&gt;&lt;td&gt;&lt;br&gt;&lt;/td&gt;&lt;td&gt;&lt;br&gt;&lt;/td&gt;&lt;td&gt;&lt;br&gt;&lt;/td&gt;&lt;td&gt;&lt;br&gt;&lt;/td&gt;&lt;/tr&gt;&lt;tr&gt;&lt;td&gt;&lt;br&gt;&lt;/td&gt;&lt;td&gt;SrcRefNo&lt;br&gt;&lt;/td&gt;&lt;td&gt;&lt;br&gt;&lt;/td&gt;&lt;td&gt;&lt;br&gt;&lt;/td&gt;&lt;td&gt;&lt;br&gt;&lt;/td&gt;&lt;td&gt;&lt;br&gt;&lt;/td&gt;&lt;/tr&gt;&lt;tr&gt;&lt;td&gt;&lt;br&gt;&lt;/td&gt;&lt;td&gt;SrcRefNo&lt;br&gt;&lt;/td&gt;&lt;td&gt;&lt;br&gt;&lt;/td&gt;&lt;td&gt;&lt;br&gt;&lt;/td&gt;&lt;td&gt;&lt;br&gt;&lt;/td&gt;&lt;td&gt;&lt;br&gt;&lt;/td&gt;&lt;/tr&gt;&lt;tr&gt;&lt;td&gt;&lt;br&gt;&lt;/td&gt;&lt;td&gt;TranInfo&lt;br&gt;&lt;/td&gt;&lt;td&gt;&lt;br&gt;&lt;/td&gt;&lt;td&gt;&lt;br&gt;&lt;/td&gt;&lt;td&gt;&lt;br&gt;&lt;/td&gt;&lt;td&gt;&lt;br&gt;&lt;/td&gt;&lt;/tr&gt;&lt;tr&gt;&lt;td&gt;&lt;br&gt;&lt;/td&gt;&lt;td&gt;TranType&lt;br&gt;&lt;/td&gt;&lt;td&gt;&lt;br&gt;&lt;/td&gt;&lt;td&gt;&lt;br&gt;&lt;/td&gt;&lt;td&gt;&lt;br&gt;&lt;/td&gt;&lt;td&gt;&lt;br&gt;&lt;/td&gt;&lt;/tr&gt;&lt;/tbody&gt;&lt;/table&gt; " style="verticalAlign=top;align=left;overflow=fill;fontSize=12;fontFamily=Helvetica;html=1;shadow=0;fillColor=#CCFFFF;gradientColor=#ffffff;" vertex="1" parent="b0wTaCNG8n2VyJrpP7Xb-8">
          <mxGeometry x="140" y="91.88" width="473.33" height="338.13" as="geometry" />
        </mxCell>
        <mxCell id="b0wTaCNG8n2VyJrpP7Xb-18" value="MQ Spec" style="fillColor=none;strokeColor=none;align=left;fontSize=14;shadow=0;fontStyle=1" vertex="1" parent="b0wTaCNG8n2VyJrpP7Xb-8">
          <mxGeometry x="19.72222222222222" y="38.791666666666664" width="147.91666666666669" height="40.83333333333333" as="geometry" />
        </mxCell>
        <mxCell id="b0wTaCNG8n2VyJrpP7Xb-19" value="Choose File" style="fillColor=#FEFEFE;strokeColor=#AAAAAA;fontSize=14;gradientColor=#F0F0F0;shadow=0;" vertex="1" parent="b0wTaCNG8n2VyJrpP7Xb-8">
          <mxGeometry x="88.75" y="43.89583333333333" width="88.75" height="30.624999999999996" as="geometry" />
        </mxCell>
        <mxCell id="b0wTaCNG8n2VyJrpP7Xb-20" value="No file chosen" style="fillColor=none;strokeColor=none;align=left;fontSize=14;spacing=5;shadow=0;" vertex="1" parent="b0wTaCNG8n2VyJrpP7Xb-8">
          <mxGeometry x="177.5" y="43.89583333333333" width="98.61111111111111" height="30.624999999999996" as="geometry" />
        </mxCell>
        <mxCell id="b0wTaCNG8n2VyJrpP7Xb-26" value="Generate" style="strokeWidth=1;shadow=0;dashed=0;align=center;html=1;shape=mxgraph.mockup.buttons.button;strokeColor=#666666;fontColor=#ffffff;mainText=;buttonStyle=round;fontSize=17;fontStyle=1;fillColor=#008cff;whiteSpace=wrap;" vertex="1" parent="b0wTaCNG8n2VyJrpP7Xb-8">
          <mxGeometry x="276.11" y="449.16666666666663" width="150" height="30.624999999999996" as="geometry" />
        </mxCell>
        <mxCell id="b0wTaCNG8n2VyJrpP7Xb-27" value="" style="verticalLabelPosition=bottom;shadow=0;dashed=0;align=center;html=1;verticalAlign=top;strokeWidth=1;shape=mxgraph.mockup.forms.horSlider;strokeColor=#999999;sliderStyle=basic;sliderPos=97.007;handleStyle=circle;fillColor2=#ddeeff;direction=north;fillColor=#CCFFFF;gradientColor=#ffffff;" vertex="1" parent="b0wTaCNG8n2VyJrpP7Xb-8">
          <mxGeometry x="620" y="91.88" width="30" height="338.12" as="geometry" />
        </mxCell>
        <mxCell id="b0wTaCNG8n2VyJrpP7Xb-28" value="" style="strokeWidth=1;shadow=0;dashed=0;align=center;html=1;shape=mxgraph.mockup.forms.rrect;rSize=0;fillColor=#eeeeee;strokeColor=#999999;gradientColor=#cccccc;align=left;spacingLeft=4;fontSize=17;fontColor=#666666;labelPosition=right;" vertex="1" parent="b0wTaCNG8n2VyJrpP7Xb-8">
          <mxGeometry x="369.16999999999996" y="122" width="15" height="15" as="geometry" />
        </mxCell>
        <mxCell id="b0wTaCNG8n2VyJrpP7Xb-31" value="" style="strokeWidth=1;shadow=0;dashed=0;align=center;html=1;shape=mxgraph.mockup.forms.rrect;rSize=0;fillColor=#eeeeee;strokeColor=#999999;gradientColor=#cccccc;align=left;spacingLeft=4;fontSize=17;fontColor=#666666;labelPosition=right;" vertex="1" parent="b0wTaCNG8n2VyJrpP7Xb-8">
          <mxGeometry x="369.16999999999996" y="148" width="15" height="15" as="geometry" />
        </mxCell>
        <mxCell id="b0wTaCNG8n2VyJrpP7Xb-32" value="" style="strokeWidth=1;shadow=0;dashed=0;align=center;html=1;shape=mxgraph.mockup.forms.rrect;rSize=0;fillColor=#eeeeee;strokeColor=#999999;gradientColor=#cccccc;align=left;spacingLeft=4;fontSize=17;fontColor=#666666;labelPosition=right;" vertex="1" parent="b0wTaCNG8n2VyJrpP7Xb-8">
          <mxGeometry x="369.16999999999996" y="174" width="15" height="15" as="geometry" />
        </mxCell>
        <mxCell id="b0wTaCNG8n2VyJrpP7Xb-33" value="" style="strokeWidth=1;shadow=0;dashed=0;align=center;html=1;shape=mxgraph.mockup.forms.rrect;rSize=0;fillColor=#eeeeee;strokeColor=#999999;gradientColor=#cccccc;align=left;spacingLeft=4;fontSize=17;fontColor=#666666;labelPosition=right;" vertex="1" parent="b0wTaCNG8n2VyJrpP7Xb-8">
          <mxGeometry x="369.16999999999996" y="200" width="15" height="15" as="geometry" />
        </mxCell>
        <mxCell id="b0wTaCNG8n2VyJrpP7Xb-34" value="" style="strokeWidth=1;shadow=0;dashed=0;align=center;html=1;shape=mxgraph.mockup.forms.rrect;rSize=0;fillColor=#eeeeee;strokeColor=#999999;gradientColor=#cccccc;align=left;spacingLeft=4;fontSize=17;fontColor=#666666;labelPosition=right;" vertex="1" parent="b0wTaCNG8n2VyJrpP7Xb-8">
          <mxGeometry x="369.16999999999996" y="226" width="15" height="15" as="geometry" />
        </mxCell>
        <mxCell id="b0wTaCNG8n2VyJrpP7Xb-35" value="" style="strokeWidth=1;shadow=0;dashed=0;align=center;html=1;shape=mxgraph.mockup.forms.rrect;rSize=0;fillColor=#eeeeee;strokeColor=#999999;gradientColor=#cccccc;align=left;spacingLeft=4;fontSize=17;fontColor=#666666;labelPosition=right;" vertex="1" parent="b0wTaCNG8n2VyJrpP7Xb-8">
          <mxGeometry x="369.16999999999996" y="252" width="15" height="15" as="geometry" />
        </mxCell>
        <mxCell id="b0wTaCNG8n2VyJrpP7Xb-36" value="" style="strokeWidth=1;shadow=0;dashed=0;align=center;html=1;shape=mxgraph.mockup.forms.rrect;rSize=0;fillColor=#eeeeee;strokeColor=#999999;gradientColor=#cccccc;align=left;spacingLeft=4;fontSize=17;fontColor=#666666;labelPosition=right;" vertex="1" parent="b0wTaCNG8n2VyJrpP7Xb-8">
          <mxGeometry x="369.15999999999997" y="279" width="15" height="15" as="geometry" />
        </mxCell>
        <mxCell id="b0wTaCNG8n2VyJrpP7Xb-37" value="" style="strokeWidth=1;shadow=0;dashed=0;align=center;html=1;shape=mxgraph.mockup.forms.rrect;rSize=0;fillColor=#eeeeee;strokeColor=#999999;gradientColor=#cccccc;align=left;spacingLeft=4;fontSize=17;fontColor=#666666;labelPosition=right;" vertex="1" parent="b0wTaCNG8n2VyJrpP7Xb-8">
          <mxGeometry x="369.15999999999997" y="305" width="15" height="15" as="geometry" />
        </mxCell>
        <mxCell id="b0wTaCNG8n2VyJrpP7Xb-38" value="" style="strokeWidth=1;shadow=0;dashed=0;align=center;html=1;shape=mxgraph.mockup.forms.rrect;rSize=0;fillColor=#eeeeee;strokeColor=#999999;gradientColor=#cccccc;align=left;spacingLeft=4;fontSize=17;fontColor=#666666;labelPosition=right;" vertex="1" parent="b0wTaCNG8n2VyJrpP7Xb-8">
          <mxGeometry x="369.15999999999997" y="331" width="15" height="15" as="geometry" />
        </mxCell>
        <mxCell id="b0wTaCNG8n2VyJrpP7Xb-39" value="" style="strokeWidth=1;shadow=0;dashed=0;align=center;html=1;shape=mxgraph.mockup.forms.rrect;rSize=0;fillColor=#eeeeee;strokeColor=#999999;gradientColor=#cccccc;align=left;spacingLeft=4;fontSize=17;fontColor=#666666;labelPosition=right;" vertex="1" parent="b0wTaCNG8n2VyJrpP7Xb-8">
          <mxGeometry x="369.15999999999997" y="355" width="15" height="15" as="geometry" />
        </mxCell>
        <mxCell id="b0wTaCNG8n2VyJrpP7Xb-40" value="" style="strokeWidth=1;shadow=0;dashed=0;align=center;html=1;shape=mxgraph.mockup.forms.rrect;rSize=0;fillColor=#eeeeee;strokeColor=#999999;gradientColor=#cccccc;align=left;spacingLeft=4;fontSize=17;fontColor=#666666;labelPosition=right;" vertex="1" parent="b0wTaCNG8n2VyJrpP7Xb-8">
          <mxGeometry x="369.15999999999997" y="381" width="15" height="15" as="geometry" />
        </mxCell>
        <mxCell id="b0wTaCNG8n2VyJrpP7Xb-41" value="" style="strokeWidth=1;shadow=0;dashed=0;align=center;html=1;shape=mxgraph.mockup.forms.rrect;rSize=0;fillColor=#eeeeee;strokeColor=#999999;gradientColor=#cccccc;align=left;spacingLeft=4;fontSize=17;fontColor=#666666;labelPosition=right;" vertex="1" parent="b0wTaCNG8n2VyJrpP7Xb-8">
          <mxGeometry x="369.15999999999997" y="407" width="15" height="15" as="geometry" />
        </mxCell>
      </root>
    </mxGraphModel>
  </diagram>
</mxfile>
